<?xml version="1.0" encoding="UTF-8"?>
<!DOCTYPE svg PUBLIC "-//W3C//DTD SVG 1.1//EN" "http://www.w3.org/Graphics/SVG/1.1/DTD/svg11.dtd">
<svg xmlns="http://www.w3.org/2000/svg" version="1.1" width="3255px" height="787px" style="shape-rendering:geometricPrecision; text-rendering:geometricPrecision; image-rendering:optimizeQuality; fill-rule:evenodd; clip-rule:evenodd" xmlns:xlink="http://www.w3.org/1999/xlink">
<g><path style="opacity:0.958" fill="#04A89B" d="M 452.5,-0.5 C 500.5,-0.5 548.5,-0.5 596.5,-0.5C 596.5,5.5 596.5,11.5 596.5,17.5C 595.5,17.5 594.5,17.5 593.5,17.5C 593.666,22.8437 593.499,28.1771 593,33.5C 592.586,33.9574 592.086,34.2907 591.5,34.5C 590.508,38.7828 590.174,43.1161 590.5,47.5C 589.5,47.5 588.5,47.5 587.5,47.5C 588.496,52.4626 588.663,57.4626 588,62.5C 587.1,63.7702 585.934,64.7702 584.5,65.5C 585.448,70.4351 585.781,75.4351 585.5,80.5C 584.5,80.5 583.5,80.5 582.5,80.5C 582.5,85.1667 582.5,89.8333 582.5,94.5C 581.5,94.5 580.5,94.5 579.5,94.5C 579.5,99.8333 579.5,105.167 579.5,110.5C 578.5,110.5 577.5,110.5 576.5,110.5C 577.509,115.796 577.676,121.129 577,126.5C 575.795,127.071 574.628,127.738 573.5,128.5C 542.507,129.5 511.507,129.833 480.5,129.5C 480.5,126.833 480.5,124.167 480.5,121.5C 479.5,121.5 478.5,121.5 477.5,121.5C 477.203,117.233 477.536,113.066 478.5,109C 477.234,108.691 476.067,108.191 475,107.5C 474.259,104.438 474.425,101.438 475.5,98.5C 474.675,97.6143 473.675,97.281 472.5,97.5C 472.5,92.8333 472.5,88.1667 472.5,83.5C 471.5,83.5 470.5,83.5 469.5,83.5C 469.5,79.8333 469.5,76.1667 469.5,72.5C 468.5,72.5 467.5,72.5 466.5,72.5C 466.203,68.2325 466.536,64.0659 467.5,60C 466.437,58.8118 465.103,58.3118 463.5,58.5C 463.234,54.4295 463.567,50.4295 464.5,46.5C 463.758,45.7132 462.925,45.0465 462,44.5C 461.824,41.1182 461.324,37.7848 460.5,34.5C 459.914,34.2907 459.414,33.9574 459,33.5C 458.501,29.1794 458.334,24.8461 458.5,20.5C 457.5,20.5 456.5,20.5 455.5,20.5C 455.249,17.091 455.583,13.7577 456.5,10.5C 455.066,9.77022 453.9,8.77022 453,7.5C 452.503,4.85397 452.336,2.1873 452.5,-0.5 Z"/></g>
<g><path style="opacity:0.987" fill="#04A89B" d="M 2064.5,186.5 C 2098.17,186.5 2131.83,186.5 2165.5,186.5C 2165.67,282.167 2165.5,377.834 2165,473.5C 2164.37,510.719 2153.37,544.386 2132,574.5C 2107.56,602.305 2076.72,617.805 2039.5,621C 2009.49,623.232 1979.82,621.065 1950.5,614.5C 1952.42,594.852 1954.26,575.186 1956,555.5C 1956.6,546.787 1961.1,541.287 1969.5,539C 1986.46,540.072 2003.46,540.406 2020.5,540C 2041.63,536.545 2054.79,524.378 2060,503.5C 2062.09,495.288 2063.42,486.955 2064,478.5C 2064.5,381.167 2064.67,283.834 2064.5,186.5 Z"/></g>
<g><path style="opacity:0.99" fill="#04A89B" d="M 2258.5,186.5 C 2292.17,186.5 2325.83,186.5 2359.5,186.5C 2359.33,276.501 2359.5,366.501 2360,456.5C 2367.53,514.362 2400.36,540.862 2458.5,536C 2495.07,529.434 2517.23,507.934 2525,471.5C 2526.71,463.254 2527.71,454.921 2528,446.5C 2528.5,359.834 2528.67,273.167 2528.5,186.5C 2561.83,186.5 2595.17,186.5 2628.5,186.5C 2628.67,278.167 2628.5,369.834 2628,461.5C 2620.03,539.952 2578.53,590.952 2503.5,614.5C 2476.21,621.124 2448.55,623.291 2420.5,621C 2372.66,617.494 2332.5,598.328 2300,563.5C 2274.76,532.8 2261.09,497.467 2259,457.5C 2258.5,367.167 2258.33,276.834 2258.5,186.5 Z"/></g>
<g><path style="opacity:0.991" fill="#04A89B" d="M 2731.5,186.5 C 2765.17,186.5 2798.83,186.5 2832.5,186.5C 2832.5,330.167 2832.5,473.833 2832.5,617.5C 2798.83,617.5 2765.17,617.5 2731.5,617.5C 2731.5,473.833 2731.5,330.167 2731.5,186.5 Z"/></g>
<g><path style="opacity:0.988" fill="#04A89B" d="M 3254.5,186.5 C 3254.5,213.167 3254.5,239.833 3254.5,266.5C 3214.17,266.5 3173.83,266.5 3133.5,266.5C 3133.5,383.167 3133.5,499.833 3133.5,616.5C 3099.83,616.586 3066.16,616.919 3032.5,617.5C 3032.5,500.5 3032.5,383.5 3032.5,266.5C 2992.17,266.5 2951.83,266.5 2911.5,266.5C 2911.5,239.833 2911.5,213.167 2911.5,186.5C 3025.83,186.5 3140.17,186.5 3254.5,186.5 Z"/></g>
<g><path style="opacity:0.971" fill="#04A89B" d="M -0.5,624.5 C -0.5,593.833 -0.5,563.167 -0.5,532.5C 88.5006,532.667 177.501,532.5 266.5,532C 271.233,530.179 275.899,528.179 280.5,526C 282.678,523.323 285.011,520.823 287.5,518.5C 288.466,516.604 288.799,514.604 288.5,512.5C 289.5,512.5 290.5,512.5 291.5,512.5C 291.5,510.833 291.5,509.167 291.5,507.5C 292.5,507.5 293.5,507.5 294.5,507.5C 293.215,497.154 293.215,486.821 294.5,476.5C 293.25,473.951 291.25,472.618 288.5,472.5C 288.799,470.396 288.466,468.396 287.5,466.5C 282.222,460.127 275.556,456.127 267.5,454.5C 186.167,453.833 104.833,453.167 23.5,452.5C 23.2907,451.914 22.9574,451.414 22.5,451C 20.1667,450.667 17.8333,450.333 15.5,450C 11.3995,447.586 7.39947,445.086 3.5,442.5C 3.5,440.5 3.5,438.5 3.5,436.5C 2.16667,436.5 0.833333,436.5 -0.5,436.5C -0.5,434.5 -0.5,432.5 -0.5,430.5C 0.833333,430.167 0.833333,429.833 -0.5,429.5C -0.5,356.833 -0.5,284.167 -0.5,211.5C 0.833333,211.5 2.16667,211.5 3.5,211.5C 3.5,209.833 3.5,208.167 3.5,206.5C 4.5,206.5 5.5,206.5 6.5,206.5C 8.52978,202.293 11.5298,198.793 15.5,196C 20.1667,194 24.8333,192 29.5,190C 148.833,189.5 268.166,189.333 387.5,189.5C 387.5,220.833 387.5,252.167 387.5,283.5C 297.831,283.167 208.164,283.5 118.5,284.5C 118.291,285.086 117.957,285.586 117.5,286C 113.234,286.175 109.234,287.175 105.5,289C 102.683,292.318 99.6828,295.485 96.5,298.5C 97.2458,299.736 97.5792,301.07 97.5,302.5C 96.5,302.5 95.5,302.5 94.5,302.5C 94.9492,304.977 94.2825,306.977 92.5,308.5C 91.502,317.141 91.1686,325.808 91.5,334.5C 92.5,334.5 93.5,334.5 94.5,334.5C 94.1826,337.572 94.5159,340.572 95.5,343.5C 98.5,346.5 101.5,349.5 104.5,352.5C 108.695,354.405 112.695,356.572 116.5,359C 197.502,359.167 278.502,359.667 359.5,360.5C 359.709,361.086 360.043,361.586 360.5,362C 364.821,361.567 368.154,363.067 370.5,366.5C 373.974,367.099 376.974,368.432 379.5,370.5C 379.07,374.899 380.903,377.899 385,379.5C 385.687,381.568 385.52,383.568 384.5,385.5C 385.325,386.386 386.325,386.719 387.5,386.5C 387.5,435.167 387.5,483.833 387.5,532.5C 410.169,532.667 432.836,532.5 455.5,532C 457.833,530.333 460.167,528.667 462.5,527C 467.144,525.208 471.144,522.374 474.5,518.5C 475.645,517.224 475.645,515.891 474.5,514.5C 476.738,512.742 477.738,510.408 477.5,507.5C 478.5,507.5 479.5,507.5 480.5,507.5C 480.5,401.5 480.5,295.5 480.5,189.5C 511.833,189.5 543.167,189.5 574.5,189.5C 574.832,294.07 574.499,398.57 573.5,503C 575.061,503.941 576.395,505.108 577.5,506.5C 576.754,507.736 576.421,509.07 576.5,510.5C 577.5,510.5 578.5,510.5 579.5,510.5C 579.341,513.187 580.175,515.52 582,517.5C 586.167,521 590,524.833 593.5,529C 595.833,529.333 598.167,529.667 600.5,530C 600.957,530.414 601.291,530.914 601.5,531.5C 617.823,532.666 634.156,532.833 650.5,532C 652.682,529.988 655.349,528.988 658.5,529C 660.61,525.632 663.61,523.465 667.5,522.5C 669.173,520.477 669.84,518.144 669.5,515.5C 673.689,514.627 675.689,511.96 675.5,507.5C 676.675,507.719 677.675,507.386 678.5,506.5C 677.339,466.875 677.173,427.208 678,387.5C 680.212,384.998 681.045,381.998 680.5,378.5C 684.689,377.627 686.689,374.96 686.5,370.5C 688.199,370.66 689.866,370.494 691.5,370C 693.656,368.01 695.656,365.843 697.5,363.5C 700.167,362.833 702.833,362.167 705.5,361.5C 705.709,360.914 706.043,360.414 706.5,360C 783.833,359.667 861.167,359.333 938.5,359C 938.957,358.586 939.291,358.086 939.5,357.5C 942.167,356.833 944.833,356.167 947.5,355.5C 951.167,351.167 955.167,347.167 959.5,343.5C 960.466,341.604 960.799,339.604 960.5,337.5C 961.5,337.5 962.5,337.5 963.5,337.5C 962.899,333.71 963.899,330.544 966.5,328C 965.189,323.531 965.189,319.031 966.5,314.5C 965.675,313.614 964.675,313.281 963.5,313.5C 963.5,310.833 963.5,308.167 963.5,305.5C 962.5,305.5 961.5,305.5 960.5,305.5C 960.799,303.396 960.466,301.396 959.5,299.5C 956.124,296.158 952.791,292.825 949.5,289.5C 945.445,288.252 941.779,286.419 938.5,284C 864.501,283.5 790.501,283.333 716.5,283.5C 716.5,252.167 716.5,220.833 716.5,189.5C 820.502,189.167 924.502,189.5 1028.5,190.5C 1028.71,191.086 1029.04,191.586 1029.5,192C 1033.82,191.567 1037.15,193.067 1039.5,196.5C 1043.75,196.919 1046.75,199.086 1048.5,203C 1049.45,203.483 1050.45,203.649 1051.5,203.5C 1051.26,206.408 1052.26,208.742 1054.5,210.5C 1053.05,212.263 1053.38,213.597 1055.5,214.5C 1056.5,310.164 1056.83,405.831 1056.5,501.5C 1057.5,501.5 1058.5,501.5 1059.5,501.5C 1059.5,504.5 1059.5,507.5 1059.5,510.5C 1060.5,510.5 1061.5,510.5 1062.5,510.5C 1062.21,512.288 1062.55,513.955 1063.5,515.5C 1067.16,520.672 1071.83,524.506 1077.5,527C 1079.83,528.667 1082.17,530.333 1084.5,532C 1118.17,532.833 1151.84,532.667 1185.5,531.5C 1190.44,530.302 1195.11,528.302 1199.5,525.5C 1202.95,521.597 1206.61,517.93 1210.5,514.5C 1209.75,513.264 1209.42,511.93 1209.5,510.5C 1210.5,510.5 1211.5,510.5 1212.5,510.5C 1212.5,403.5 1212.5,296.5 1212.5,189.5C 1243.83,189.5 1275.17,189.5 1306.5,189.5C 1306.33,193.514 1306.5,197.514 1307,201.5C 1312.41,196.713 1318.58,193.379 1325.5,191.5C 1325.71,190.914 1326.04,190.414 1326.5,190C 1371.5,189.167 1416.5,189.333 1461.5,190.5C 1461.71,191.086 1462.04,191.586 1462.5,192C 1467.24,191.513 1470.91,193.18 1473.5,197C 1474.45,197.483 1475.45,197.649 1476.5,197.5C 1476.2,199.604 1476.53,201.604 1477.5,203.5C 1480.03,201.395 1482.36,199.061 1484.5,196.5C 1486.08,195.702 1487.74,195.202 1489.5,195C 1491.83,193.333 1494.17,191.667 1496.5,190C 1539.83,189.5 1583.17,189.333 1626.5,189.5C 1626.5,190.5 1626.5,191.5 1626.5,192.5C 1634.7,192.925 1641.37,196.425 1646.5,203C 1647.45,203.483 1648.45,203.649 1649.5,203.5C 1649.58,204.93 1649.25,206.264 1648.5,207.5C 1650.13,209.503 1652.13,210.836 1654.5,211.5C 1654.5,216.167 1654.5,220.833 1654.5,225.5C 1655.5,225.5 1656.5,225.5 1657.5,225.5C 1657.5,320.5 1657.5,415.5 1657.5,510.5C 1658.5,510.5 1659.5,510.5 1660.5,510.5C 1660.58,511.93 1660.25,513.264 1659.5,514.5C 1662.95,518.403 1666.61,522.07 1670.5,525.5C 1674.4,527.917 1678.4,530.083 1682.5,532C 1744.83,532.5 1807.17,532.667 1869.5,532.5C 1869.5,563.167 1869.5,593.833 1869.5,624.5C 1775.17,624.5 1680.83,624.5 1586.5,624.5C 1586.67,623.178 1586.34,622.011 1585.5,621C 1582.26,619.471 1578.93,617.971 1575.5,616.5C 1573.83,614.498 1571.83,612.831 1569.5,611.5C 1568.95,609.997 1568.95,608.331 1569.5,606.5C 1568.5,606.5 1567.5,606.5 1566.5,606.5C 1566.5,604.833 1566.5,603.167 1566.5,601.5C 1565.5,601.5 1564.5,601.5 1563.5,601.5C 1563.5,505.5 1563.5,409.5 1563.5,313.5C 1562.5,313.5 1561.5,313.5 1560.5,313.5C 1560.29,311.08 1560.63,308.747 1561.5,306.5C 1560.68,305.614 1559.68,305.281 1558.5,305.5C 1558.8,303.396 1558.47,301.396 1557.5,299.5C 1553.67,296.6 1550.33,293.267 1547.5,289.5C 1543.31,287.703 1538.98,286.37 1534.5,285.5C 1534.29,284.914 1533.96,284.414 1533.5,284C 1517.17,283.5 1500.84,283.333 1484.5,283.5C 1484.5,397.167 1484.5,510.833 1484.5,624.5C 1453.17,624.5 1421.83,624.5 1390.5,624.5C 1390.17,521.126 1390.5,417.793 1391.5,314.5C 1390.68,313.614 1389.68,313.281 1388.5,313.5C 1388.5,310.833 1388.5,308.167 1388.5,305.5C 1387.5,305.5 1386.5,305.5 1385.5,305.5C 1385.8,303.396 1385.47,301.396 1384.5,299.5C 1381.12,296.158 1377.79,292.825 1374.5,289.5C 1370.69,287.673 1366.69,286.506 1362.5,286C 1362.04,285.586 1361.71,285.086 1361.5,284.5C 1343.18,283.5 1324.85,283.167 1306.5,283.5C 1306.5,388.5 1306.5,493.5 1306.5,598.5C 1305.5,598.5 1304.5,598.5 1303.5,598.5C 1303.5,601.167 1303.5,603.833 1303.5,606.5C 1297.83,610.042 1292.83,614.542 1288.5,620C 1285.1,619.734 1283.43,621.234 1283.5,624.5C 1209.83,624.5 1136.17,624.5 1062.5,624.5C 1062.5,623.167 1062.5,621.833 1062.5,620.5C 1060.8,620.66 1059.13,620.494 1057.5,620C 1056.69,618.294 1055.36,617.461 1053.5,617.5C 1053.72,616.325 1053.39,615.325 1052.5,614.5C 1051.53,616.396 1051.2,618.396 1051.5,620.5C 1048.4,619.971 1046.06,620.971 1044.5,623.5C 926.169,624.5 807.835,624.833 689.5,624.5C 689.5,623.167 689.5,621.833 689.5,620.5C 687.5,620.5 685.5,620.5 683.5,620.5C 683.799,618.396 683.466,616.396 682.5,614.5C 679.344,618.212 675.677,621.212 671.5,623.5C 578.836,624.5 486.169,624.833 393.5,624.5C 393.5,623.167 393.5,621.833 393.5,620.5C 390.08,620.926 387.247,619.926 385,617.5C 382.437,619.133 379.603,620.466 376.5,621.5C 376.167,622.167 375.833,622.833 375.5,623.5C 250.168,624.5 124.835,624.833 -0.5,624.5 Z M 795.5,453.5 C 843.168,453.333 890.834,453.5 938.5,454C 940.962,455.216 943.629,455.882 946.5,456C 950.497,460.83 954.83,465.33 959.5,469.5C 960.466,471.396 960.799,473.396 960.5,475.5C 961.5,475.5 962.5,475.5 963.5,475.5C 963.5,478.167 963.5,480.833 963.5,483.5C 964.675,483.281 965.675,483.614 966.5,484.5C 965.189,489.031 965.189,493.531 966.5,498C 965.975,498.692 965.308,499.192 964.5,499.5C 963.511,503.107 963.177,506.774 963.5,510.5C 962.5,510.5 961.5,510.5 960.5,510.5C 960.659,513.187 959.825,515.52 958,517.5C 954.876,519.991 952.043,522.825 949.5,526C 947.866,526.494 946.199,526.66 944.5,526.5C 944.5,527.5 944.5,528.5 944.5,529.5C 942.023,529.051 940.023,529.717 938.5,531.5C 892.17,532.667 845.837,532.833 799.5,532C 794.833,530 790.167,528 785.5,526C 782.306,523.228 779.306,520.228 776.5,517C 777.022,516.439 777.355,515.772 777.5,515C 775.372,513.013 774.372,510.513 774.5,507.5C 773.5,507.5 772.5,507.5 771.5,507.5C 771.5,497.5 771.5,487.5 771.5,477.5C 772.5,477.5 773.5,477.5 774.5,477.5C 774.5,475.833 774.5,474.167 774.5,472.5C 775.5,472.5 776.5,472.5 777.5,472.5C 777.185,470.774 777.019,469.107 777,467.5C 780.175,464.957 783.009,462.124 785.5,459C 786.833,458.667 788.167,458.333 789.5,458C 791.575,456.432 793.575,454.932 795.5,453.5 Z"/></g>
<g><path style="opacity:0.905" fill="#04A89B" d="M 247.5,662.5 C 258.608,660.78 263.775,665.447 263,676.5C 256.749,685.687 249.749,686.354 242,678.5C 239.548,671.622 241.381,666.289 247.5,662.5 Z"/></g>

<!-- <g><path style="opacity:0.933" fill="#04A89B" d="M 948.5,662.5 C 954.5,662.5 960.5,662.5 966.5,662.5C 966.5,696.5 966.5,730.5 966.5,764.5C 961.733,764.809 957.066,764.309 952.5,763C 950.963,760.72 949.797,758.22 949,755.5C 940.123,764.438 929.623,766.938 917.5,763C 908.48,757.814 903.313,749.98 902,739.5C 900.157,727.59 901.823,716.256 907,705.5C 914.921,694.077 925.755,689.911 939.5,693C 942.698,693.848 945.531,695.348 948,697.5C 948.5,685.838 948.667,674.171 948.5,662.5 Z M 933.5,705.5 C 947.821,706.188 952.821,713.521 948.5,727.5C 951.805,744.023 945.139,751.523 928.5,750C 923.278,747.067 920.445,742.567 920,736.5C 918.555,727.684 919.888,719.351 924,711.5C 926.551,708.319 929.718,706.319 933.5,705.5 Z"/></g>
<g><path style="opacity:0.905" fill="#04A89B" d="M 1269.5,662.5 C 1280.61,660.78 1285.78,665.447 1285,676.5C 1278.75,685.687 1271.75,686.354 1264,678.5C 1261.55,671.622 1263.38,666.289 1269.5,662.5 Z"/></g>
<g><path style="opacity:0.98" fill="#04A89B" d="M 1387.5,662.5 C 1393.17,662.5 1398.83,662.5 1404.5,662.5C 1404.5,696.5 1404.5,730.5 1404.5,764.5C 1398.83,764.5 1393.17,764.5 1387.5,764.5C 1387.5,730.5 1387.5,696.5 1387.5,662.5 Z"/></g> -->
<!-- <g><path style="opacity:0.933" fill="#04A89B" d="M 1667.5,662.5 C 1673.5,662.5 1679.5,662.5 1685.5,662.5C 1685.5,696.5 1685.5,730.5 1685.5,764.5C 1680.73,764.809 1676.07,764.309 1671.5,763C 1669.96,760.72 1668.8,758.22 1668,755.5C 1659.12,764.438 1648.62,766.938 1636.5,763C 1627.48,757.814 1622.31,749.98 1621,739.5C 1619.16,727.59 1620.82,716.256 1626,705.5C 1633.92,694.077 1644.75,689.911 1658.5,693C 1661.7,693.848 1664.53,695.348 1667,697.5C 1667.5,685.838 1667.67,674.171 1667.5,662.5 Z M 1652.5,705.5 C 1666.82,706.188 1671.82,713.521 1667.5,727.5C 1670.81,744.023 1664.14,751.523 1647.5,750C 1642.28,747.067 1639.45,742.567 1639,736.5C 1637.56,727.684 1638.89,719.351 1643,711.5C 1645.55,708.319 1648.72,706.319 1652.5,705.5 Z"/></g>
<g><path style="opacity:0.98" fill="#04A89B" d="M 2016.5,662.5 C 2022.17,662.5 2027.83,662.5 2033.5,662.5C 2033.5,696.5 2033.5,730.5 2033.5,764.5C 2027.83,764.5 2022.17,764.5 2016.5,764.5C 2016.5,730.5 2016.5,696.5 2016.5,662.5 Z"/></g>
<g><path style="opacity:0.905" fill="#04A89B" d="M 2063.5,662.5 C 2074.61,660.78 2079.78,665.447 2079,676.5C 2072.75,685.687 2065.75,686.354 2058,678.5C 2055.55,671.622 2057.38,666.289 2063.5,662.5 Z"/></g>
<g><path style="opacity:0.933" fill="#04A89B" d="M 2224.5,662.5 C 2230.5,662.5 2236.5,662.5 2242.5,662.5C 2242.5,696.5 2242.5,730.5 2242.5,764.5C 2237.73,764.809 2233.07,764.309 2228.5,763C 2226.96,760.72 2225.8,758.22 2225,755.5C 2216.12,764.438 2205.62,766.938 2193.5,763C 2184.48,757.814 2179.31,749.98 2178,739.5C 2176.16,727.59 2177.82,716.256 2183,705.5C 2190.92,694.077 2201.75,689.911 2215.5,693C 2218.7,693.848 2221.53,695.348 2224,697.5C 2224.5,685.838 2224.67,674.171 2224.5,662.5 Z M 2209.5,705.5 C 2223.82,706.188 2228.82,713.521 2224.5,727.5C 2227.81,744.023 2221.14,751.523 2204.5,750C 2199.28,747.067 2196.45,742.567 2196,736.5C 2194.56,727.684 2195.89,719.351 2200,711.5C 2202.55,708.319 2205.72,706.319 2209.5,705.5 Z"/></g>
<g><path style="opacity:0.924" fill="#04A89B" d="M 2570.5,662.5 C 2576.5,662.5 2582.5,662.5 2588.5,662.5C 2588.33,674.838 2588.5,687.171 2589,699.5C 2597,692.869 2606.17,690.703 2616.5,693C 2625.18,695.679 2630.34,701.512 2632,710.5C 2632.5,728.497 2632.67,746.497 2632.5,764.5C 2626.5,764.5 2620.5,764.5 2614.5,764.5C 2614.67,747.497 2614.5,730.497 2614,713.5C 2612.47,708.311 2608.97,705.977 2603.5,706.5C 2597.47,706.361 2592.64,708.694 2589,713.5C 2588.5,730.497 2588.33,747.497 2588.5,764.5C 2582.5,764.5 2576.5,764.5 2570.5,764.5C 2570.5,730.5 2570.5,696.5 2570.5,662.5 Z"/></g> -->
<!-- <g><path style="opacity:0.905" fill="#04A89B" d="M 3000.5,662.5 C 3011.61,660.78 3016.78,665.447 3016,676.5C 3009.75,685.687 3002.75,686.354 2995,678.5C 2992.55,671.622 2994.38,666.289 3000.5,662.5 Z"/></g>
<g><path style="opacity:0.93" fill="#04A89B" d="M -0.5,752.5 C -0.5,751.833 -0.5,751.167 -0.5,750.5C 1.61577,747.211 3.9491,744.044 6.5,741C 8.5,740.333 10.5,740.333 12.5,741C 18.3181,745.773 24.9848,748.273 32.5,748.5C 44.1758,748.661 49.3425,742.994 48,731.5C 46.8783,729.376 45.3783,727.543 43.5,726C 33.2191,722.602 23.2191,718.602 13.5,714C 4.76045,706.448 1.59378,696.948 4,685.5C 7.24162,673.926 14.7416,666.759 26.5,664C 41.2652,660.941 54.2652,664.274 65.5,674C 63.5,677.667 61.5,681.333 59.5,685C 57.1667,685.667 54.8333,685.667 52.5,685C 43.2098,678.411 33.7098,677.911 24,683.5C 20.1291,689.441 20.9624,694.607 26.5,699C 36.9959,702.943 47.3293,707.277 57.5,712C 64.1843,717.203 67.1843,724.036 66.5,732.5C 65.0079,753.823 53.5079,764.823 32,765.5C 19.6641,764.78 8.83073,760.447 -0.5,752.5 Z"/></g>
<g><path style="opacity:0.932" fill="#04A89B" d="M 558.5,663.5 C 564.176,663.334 569.843,663.501 575.5,664C 576.833,668 576.833,672 575.5,676C 562.31,675.354 556.643,681.521 558.5,694.5C 564.5,694.5 570.5,694.5 576.5,694.5C 576.5,698.833 576.5,703.167 576.5,707.5C 570.5,707.5 564.5,707.5 558.5,707.5C 558.5,726.5 558.5,745.5 558.5,764.5C 552.5,764.5 546.5,764.5 540.5,764.5C 540.667,745.497 540.5,726.497 540,707.5C 531.529,707.262 528.362,702.929 530.5,694.5C 533.833,694.5 537.167,694.5 540.5,694.5C 539.131,679.535 545.131,669.202 558.5,663.5 Z"/></g>
<g><path style="opacity:0.962" fill="#04A89B" d="M 775.5,664.5 C 781.833,664.5 788.167,664.5 794.5,664.5C 794.5,697.833 794.5,731.167 794.5,764.5C 788.167,764.5 781.833,764.5 775.5,764.5C 775.5,731.167 775.5,697.833 775.5,664.5 Z"/></g>
<g><path style="opacity:0.927" fill="#04A89B" d="M 1772.5,664.5 C 1779.17,664.334 1785.84,664.5 1792.5,665C 1805.79,697.697 1818.79,730.531 1831.5,763.5C 1825.13,764.819 1818.79,764.653 1812.5,763C 1808.43,755.953 1805.43,748.453 1803.5,740.5C 1789.82,740.167 1776.15,740.501 1762.5,741.5C 1759.97,748.921 1756.97,756.088 1753.5,763C 1747.24,764.317 1740.91,764.817 1734.5,764.5C 1747.17,731.167 1759.83,697.833 1772.5,664.5 Z M 1782.5,684.5 C 1787.27,698.134 1792.27,711.801 1797.5,725.5C 1787.86,726.498 1778.19,726.832 1768.5,726.5C 1773.36,712.574 1778.03,698.574 1782.5,684.5 Z"/></g>
<g><path style="opacity:0.926" fill="#04A89B" d="M 2300.5,664.5 C 2307.42,664.188 2314.26,664.521 2321,665.5C 2332.33,686.833 2343.67,708.167 2355,729.5C 2365.85,707.634 2377.35,686.134 2389.5,665C 2395.82,664.5 2402.16,664.334 2408.5,664.5C 2408.5,697.833 2408.5,731.167 2408.5,764.5C 2402.83,764.5 2397.17,764.5 2391.5,764.5C 2391.67,741.498 2391.5,718.498 2391,695.5C 2381.21,714.241 2371.05,732.741 2360.5,751C 2355.38,753.375 2350.88,752.542 2347,748.5C 2337.33,730.5 2327.67,712.5 2318,694.5C 2318.47,717.777 2318.64,741.11 2318.5,764.5C 2312.5,764.5 2306.5,764.5 2300.5,764.5C 2300.5,731.167 2300.5,697.833 2300.5,664.5 Z"/></g>
<g><path style="opacity:0.944" fill="#04A89B" d="M 375.5,671.5 C 379.167,671.5 382.833,671.5 386.5,671.5C 386.5,679.167 386.5,686.833 386.5,694.5C 392.833,694.5 399.167,694.5 405.5,694.5C 405.5,698.833 405.5,703.167 405.5,707.5C 399.167,707.5 392.833,707.5 386.5,707.5C 386.056,720.907 386.556,734.24 388,747.5C 389.126,748.944 390.626,749.61 392.5,749.5C 395.171,748.643 397.837,748.143 400.5,748C 403.223,751.057 405.556,754.39 407.5,758C 401.86,762.659 395.36,765.159 388,765.5C 378.972,765.322 372.972,760.989 370,752.5C 369.5,737.504 369.333,722.504 369.5,707.5C 359.602,709.267 355.935,705.267 358.5,695.5C 362.448,695.314 366.281,694.648 370,693.5C 370.883,685.819 372.716,678.486 375.5,671.5 Z"/></g>
<g><path style="opacity:0.944" fill="#04A89B" d="M 1152.5,671.5 C 1156.17,671.5 1159.83,671.5 1163.5,671.5C 1163.5,679.167 1163.5,686.833 1163.5,694.5C 1169.83,694.5 1176.17,694.5 1182.5,694.5C 1182.5,698.833 1182.5,703.167 1182.5,707.5C 1176.17,707.5 1169.83,707.5 1163.5,707.5C 1163.06,720.907 1163.56,734.24 1165,747.5C 1166.13,748.944 1167.63,749.61 1169.5,749.5C 1172.17,748.643 1174.84,748.143 1177.5,748C 1180.22,751.057 1182.56,754.39 1184.5,758C 1178.86,762.659 1172.36,765.159 1165,765.5C 1155.97,765.322 1149.97,760.989 1147,752.5C 1146.5,737.504 1146.33,722.504 1146.5,707.5C 1136.6,709.267 1132.94,705.267 1135.5,695.5C 1139.45,695.314 1143.28,694.648 1147,693.5C 1147.88,685.819 1149.72,678.486 1152.5,671.5 Z"/></g>
<g><path style="opacity:0.945" fill="#04A89B" d="M 2522.5,671.5 C 2526.17,671.5 2529.83,671.5 2533.5,671.5C 2533.5,679.167 2533.5,686.833 2533.5,694.5C 2539.83,694.5 2546.17,694.5 2552.5,694.5C 2552.5,698.833 2552.5,703.167 2552.5,707.5C 2546.17,707.5 2539.83,707.5 2533.5,707.5C 2533.06,720.907 2533.56,734.24 2535,747.5C 2536.13,748.944 2537.63,749.61 2539.5,749.5C 2542.17,748.643 2544.84,748.143 2547.5,748C 2550.22,751.057 2552.56,754.39 2554.5,758C 2549.14,762.841 2542.81,765.008 2535.5,764.5C 2527.67,765.335 2521.84,762.335 2518,755.5C 2516.55,739.571 2516.05,723.571 2516.5,707.5C 2506.6,709.267 2502.94,705.267 2505.5,695.5C 2509.45,695.314 2513.28,694.648 2517,693.5C 2517.88,685.819 2519.72,678.486 2522.5,671.5 Z"/></g>
<g><path style="opacity:0.945" fill="#04A89B" d="M 2945.5,671.5 C 2949.17,671.5 2952.83,671.5 2956.5,671.5C 2956.5,679.167 2956.5,686.833 2956.5,694.5C 2962.83,694.5 2969.17,694.5 2975.5,694.5C 2975.5,698.833 2975.5,703.167 2975.5,707.5C 2969.17,707.5 2962.83,707.5 2956.5,707.5C 2956.06,720.907 2956.56,734.24 2958,747.5C 2959.13,748.944 2960.63,749.61 2962.5,749.5C 2965.17,748.643 2967.84,748.143 2970.5,748C 2973.22,751.057 2975.56,754.39 2977.5,758C 2972.14,762.841 2965.81,765.008 2958.5,764.5C 2950.67,765.335 2944.84,762.335 2941,755.5C 2939.55,739.571 2939.05,723.571 2939.5,707.5C 2929.6,709.267 2925.94,705.267 2928.5,695.5C 2932.45,695.314 2936.28,694.648 2940,693.5C 2940.88,685.819 2942.72,678.486 2945.5,671.5 Z"/></g>
<g><path style="opacity:0.933" fill="#04A89B" d="M 106.5,692.5 C 134.07,689.089 149.07,701.089 151.5,728.5C 148.945,756.229 133.945,768.062 106.5,764C 92.7831,760.284 84.6164,751.45 82,737.5C 77.7326,715.347 85.8993,700.347 106.5,692.5 Z M 114.5,705.5 C 127.797,707.157 133.797,714.823 132.5,728.5C 132.88,734.979 131.38,740.979 128,746.5C 119.069,753.351 110.735,752.684 103,744.5C 98.3333,733.833 98.3333,723.167 103,712.5C 105.986,708.582 109.819,706.248 114.5,705.5 Z"/></g>
<g><path style="opacity:0.925" fill="#04A89B" d="M 189.5,692.5 C 197.238,692.144 204.905,692.644 212.5,694C 217.218,695.895 221.218,698.728 224.5,702.5C 222.734,706.437 219.901,709.103 216,710.5C 192.446,700.687 181.78,708.687 184,734.5C 186.04,747.761 193.54,752.927 206.5,750C 209.73,747.927 213.063,746.094 216.5,744.5C 220.279,746.444 223.279,749.278 225.5,753C 214.125,764.397 200.792,767.731 185.5,763C 176.149,758.644 169.982,751.477 167,741.5C 162.347,724.605 166.18,710.105 178.5,698C 182.192,696.058 185.858,694.224 189.5,692.5 Z"/></g>
<g><path style="opacity:0.922" fill="#04A89B" d="M 305.5,692.5 C 333.974,689.151 347.141,701.484 345,729.5C 344.25,730.126 343.416,730.626 342.5,731C 328.171,731.5 313.837,731.667 299.5,731.5C 301.698,748.508 311.032,754.342 327.5,749C 330.456,747.041 333.623,745.541 337,744.5C 340.651,746.653 343.484,749.653 345.5,753.5C 342.218,757.272 338.218,760.105 333.5,762C 320.998,766.58 308.664,765.913 296.5,760C 288.757,754.023 283.924,746.19 282,736.5C 278.111,715.265 285.944,700.599 305.5,692.5 Z M 309.5,705.5 C 322.009,703.032 328.676,708.032 329.5,720.5C 319.5,720.5 309.5,720.5 299.5,720.5C 300.518,713.839 303.852,708.839 309.5,705.5 Z"/></g>
<g><path style="opacity:0.933" fill="#04A89B" d="M 612.5,692.5 C 640.07,689.089 655.07,701.089 657.5,728.5C 654.945,756.229 639.945,768.062 612.5,764C 598.783,760.284 590.616,751.45 588,737.5C 583.733,715.347 591.899,700.347 612.5,692.5 Z M 620.5,705.5 C 633.797,707.157 639.797,714.823 638.5,728.5C 638.88,734.979 637.38,740.979 634,746.5C 625.069,753.351 616.735,752.684 609,744.5C 604.333,733.833 604.333,723.167 609,712.5C 611.986,708.582 615.819,706.248 620.5,705.5 Z"/></g>
<g><path style="opacity:0.915" fill="#04A89B" d="M 706.5,692.5 C 711.179,692.334 715.845,692.501 720.5,693C 721.516,693.519 722.182,694.353 722.5,695.5C 721.764,700.095 720.764,704.595 719.5,709C 708.046,706.406 699.879,710.24 695,720.5C 694.5,735.163 694.333,749.83 694.5,764.5C 688.5,764.5 682.5,764.5 676.5,764.5C 676.5,740.833 676.5,717.167 676.5,693.5C 681.511,693.334 686.511,693.501 691.5,694C 692.709,697.037 693.543,700.204 694,703.5C 697.127,698.54 701.294,694.873 706.5,692.5 Z"/></g> -->
<!-- <g><path style="opacity:0.92" fill="#04A89B" d="M 851.5,692.5 C 867.641,689.142 878.141,695.142 883,710.5C 883.5,728.497 883.667,746.497 883.5,764.5C 877.5,764.5 871.5,764.5 865.5,764.5C 865.667,747.497 865.5,730.497 865,713.5C 863.466,708.311 859.966,705.977 854.5,706.5C 848.473,706.361 843.639,708.694 840,713.5C 839.5,730.497 839.333,747.497 839.5,764.5C 833.5,764.5 827.5,764.5 821.5,764.5C 821.5,740.833 821.5,717.167 821.5,693.5C 826.511,693.334 831.511,693.501 836.5,694C 837.255,696.175 838.088,698.341 839,700.5C 842.671,696.923 846.838,694.256 851.5,692.5 Z"/></g>
<g><path style="opacity:0.916" fill="#04A89B" d="M 1088.5,692.5 C 1101.14,690.116 1112.14,693.116 1121.5,701.5C 1119.87,704.596 1117.87,707.43 1115.5,710C 1109.77,708.543 1103.94,707.043 1098,705.5C 1093.02,705.733 1089.52,708.066 1087.5,712.5C 1088.25,714.753 1089.59,716.587 1091.5,718C 1099.32,720.608 1106.99,723.608 1114.5,727C 1121.14,732.711 1123.3,739.877 1121,748.5C 1119.33,754.841 1115.49,759.341 1109.5,762C 1094.83,767.22 1081.16,765.22 1068.5,756C 1070.11,752.728 1072.11,749.728 1074.5,747C 1076.5,746.333 1078.5,746.333 1080.5,747C 1087.93,752.238 1095.6,752.738 1103.5,748.5C 1106.47,743.922 1105.47,740.422 1100.5,738C 1092.52,735.784 1084.85,732.784 1077.5,729C 1069.98,721.042 1068.81,712.208 1074,702.5C 1077.63,697.358 1082.47,694.024 1088.5,692.5 Z"/></g>
<g><path style="opacity:0.915" fill="#04A89B" d="M 1230.5,692.5 C 1235.18,692.334 1239.85,692.501 1244.5,693C 1245.52,693.519 1246.18,694.353 1246.5,695.5C 1245.76,700.095 1244.76,704.595 1243.5,709C 1232.05,706.406 1223.88,710.24 1219,720.5C 1218.5,735.163 1218.33,749.83 1218.5,764.5C 1212.5,764.5 1206.5,764.5 1200.5,764.5C 1200.5,740.833 1200.5,717.167 1200.5,693.5C 1205.51,693.334 1210.51,693.501 1215.5,694C 1216.71,697.037 1217.54,700.204 1218,703.5C 1221.13,698.54 1225.29,694.873 1230.5,692.5 Z"/></g>
<g><path style="opacity:0.928" fill="#04A89B" d="M 1327.5,692.5 C 1334.59,692.116 1341.59,692.616 1348.5,694C 1356.8,697.42 1361.63,703.586 1363,712.5C 1363.5,729.497 1363.67,746.497 1363.5,763.5C 1359.49,763.666 1355.49,763.499 1351.5,763C 1349.4,760.958 1348.23,758.458 1348,755.5C 1341.77,762.116 1334.1,765.449 1325,765.5C 1309.87,764.578 1303.2,756.578 1305,741.5C 1306.74,734.763 1310.9,730.263 1317.5,728C 1326.79,724.146 1336.46,722.646 1346.5,723.5C 1347.35,716.869 1345.35,711.369 1340.5,707C 1338.64,706.578 1336.81,706.078 1335,705.5C 1328.58,707.127 1322.41,709.46 1316.5,712.5C 1311.54,710.87 1308.7,707.537 1308,702.5C 1313.68,697.41 1320.18,694.077 1327.5,692.5 Z M 1334.5,734.5 C 1338.5,734.5 1342.5,734.5 1346.5,734.5C 1347.53,745.647 1342.36,751.313 1331,751.5C 1325.73,752.067 1322.56,749.733 1321.5,744.5C 1321.94,741.786 1323.27,739.62 1325.5,738C 1328.57,736.704 1331.57,735.538 1334.5,734.5 Z"/></g>
<g><path style="opacity:0.928" fill="#04A89B" d="M 1482.5,692.5 C 1489.59,692.116 1496.59,692.616 1503.5,694C 1511.8,697.42 1516.63,703.586 1518,712.5C 1518.5,729.497 1518.67,746.497 1518.5,763.5C 1514.49,763.666 1510.49,763.499 1506.5,763C 1504.4,760.958 1503.23,758.458 1503,755.5C 1496.77,762.116 1489.1,765.449 1480,765.5C 1464.87,764.578 1458.2,756.578 1460,741.5C 1461.74,734.763 1465.9,730.263 1472.5,728C 1481.79,724.146 1491.46,722.646 1501.5,723.5C 1502.35,716.869 1500.35,711.369 1495.5,707C 1493.64,706.578 1491.81,706.078 1490,705.5C 1483.58,707.127 1477.41,709.46 1471.5,712.5C 1466.54,710.87 1463.7,707.537 1463,702.5C 1468.68,697.41 1475.18,694.077 1482.5,692.5 Z M 1489.5,734.5 C 1493.5,734.5 1497.5,734.5 1501.5,734.5C 1502.53,745.647 1497.36,751.313 1486,751.5C 1480.73,752.067 1477.56,749.733 1476.5,744.5C 1476.94,741.786 1478.27,739.62 1480.5,738C 1483.57,736.704 1486.57,735.538 1489.5,734.5 Z"/></g>
<g><path style="opacity:0.92" fill="#04A89B" d="M 1570.5,692.5 C 1586.64,689.142 1597.14,695.142 1602,710.5C 1602.5,728.497 1602.67,746.497 1602.5,764.5C 1596.5,764.5 1590.5,764.5 1584.5,764.5C 1584.67,747.497 1584.5,730.497 1584,713.5C 1582.47,708.311 1578.97,705.977 1573.5,706.5C 1567.47,706.361 1562.64,708.694 1559,713.5C 1558.5,730.497 1558.33,747.497 1558.5,764.5C 1552.5,764.5 1546.5,764.5 1540.5,764.5C 1540.5,740.833 1540.5,717.167 1540.5,693.5C 1545.51,693.334 1550.51,693.501 1555.5,694C 1556.25,696.175 1557.09,698.341 1558,700.5C 1561.67,696.923 1565.84,694.256 1570.5,692.5 Z"/></g>
<g><path style="opacity:0.93" fill="#04A89B" d="M 1864.5,786.5 C 1858.5,786.5 1852.5,786.5 1846.5,786.5C 1846.5,755.5 1846.5,724.5 1846.5,693.5C 1851.51,693.334 1856.51,693.501 1861.5,694C 1862.41,696.447 1863.24,698.947 1864,701.5C 1872.88,692.562 1883.38,690.062 1895.5,694C 1904.45,698.39 1909.62,705.557 1911,715.5C 1913.51,727.617 1912.17,739.283 1907,750.5C 1898.85,762.658 1887.68,767.158 1873.5,764C 1870.3,763.152 1867.47,761.652 1865,759.5C 1864.5,768.494 1864.33,777.494 1864.5,786.5 Z M 1874.5,706.5 C 1884.64,704.641 1890.81,708.641 1893,718.5C 1893.85,725.899 1893.51,733.233 1892,740.5C 1884.94,752.683 1875.94,754.349 1865,745.5C 1864.33,735.167 1864.33,724.833 1865,714.5C 1867.69,711.241 1870.86,708.575 1874.5,706.5 Z"/></g>
<g><path style="opacity:0.93" fill="#04A89B" d="M 1948.5,786.5 C 1942.5,786.5 1936.5,786.5 1930.5,786.5C 1930.5,755.5 1930.5,724.5 1930.5,693.5C 1935.51,693.334 1940.51,693.501 1945.5,694C 1946.41,696.447 1947.24,698.947 1948,701.5C 1956.88,692.562 1967.38,690.062 1979.5,694C 1988.45,698.39 1993.62,705.557 1995,715.5C 1997.51,727.617 1996.17,739.283 1991,750.5C 1982.85,762.658 1971.68,767.158 1957.5,764C 1954.3,763.152 1951.47,761.652 1949,759.5C 1948.5,768.494 1948.33,777.494 1948.5,786.5 Z M 1958.5,706.5 C 1968.64,704.641 1974.81,708.641 1977,718.5C 1977.85,725.899 1977.51,733.233 1976,740.5C 1968.94,752.683 1959.94,754.349 1949,745.5C 1948.33,735.167 1948.33,724.833 1949,714.5C 1951.69,711.241 1954.86,708.575 1958.5,706.5 Z"/></g> -->
<!-- <g><path style="opacity:0.922" fill="#04A89B" d="M 2121.5,692.5 C 2149.97,689.151 2163.14,701.484 2161,729.5C 2160.25,730.126 2159.42,730.626 2158.5,731C 2144.17,731.5 2129.84,731.667 2115.5,731.5C 2117.7,748.508 2127.03,754.342 2143.5,749C 2146.46,747.041 2149.62,745.541 2153,744.5C 2156.65,746.653 2159.48,749.653 2161.5,753.5C 2157.52,758.164 2152.52,761.331 2146.5,763C 2138.56,764.53 2130.56,764.863 2122.5,764C 2108.47,760.121 2100.3,750.955 2098,736.5C 2094.11,715.265 2101.94,700.599 2121.5,692.5 Z M 2125.5,705.5 C 2138.01,703.032 2144.68,708.032 2145.5,720.5C 2135.5,720.5 2125.5,720.5 2115.5,720.5C 2116.52,713.839 2119.85,708.839 2125.5,705.5 Z"/></g>
<g><path style="opacity:0.929" fill="#04A89B" d="M 2452.5,692.5 C 2459.59,692.116 2466.59,692.616 2473.5,694C 2481.8,697.42 2486.63,703.586 2488,712.5C 2488.5,729.497 2488.67,746.497 2488.5,763.5C 2484.49,763.666 2480.49,763.499 2476.5,763C 2474.4,760.958 2473.23,758.458 2473,755.5C 2464.49,763.839 2454.32,766.672 2442.5,764C 2432.01,760.199 2427.84,752.699 2430,741.5C 2431.74,734.763 2435.9,730.263 2442.5,728C 2451.79,724.146 2461.46,722.646 2471.5,723.5C 2472.35,716.869 2470.35,711.369 2465.5,707C 2463.64,706.578 2461.81,706.078 2460,705.5C 2453.58,707.127 2447.41,709.46 2441.5,712.5C 2436.54,710.87 2433.7,707.537 2433,702.5C 2438.68,697.41 2445.18,694.077 2452.5,692.5 Z M 2459.5,734.5 C 2463.5,734.5 2467.5,734.5 2471.5,734.5C 2472.53,745.647 2467.36,751.313 2456,751.5C 2450.73,752.067 2447.56,749.733 2446.5,744.5C 2446.94,741.786 2448.27,739.62 2450.5,738C 2453.57,736.704 2456.57,735.538 2459.5,734.5 Z"/></g>
<g><path style="opacity:0.922" fill="#04A89B" d="M 2675.5,692.5 C 2703.97,689.151 2717.14,701.484 2715,729.5C 2714.25,730.126 2713.42,730.626 2712.5,731C 2698.17,731.5 2683.84,731.667 2669.5,731.5C 2671.7,748.508 2681.03,754.342 2697.5,749C 2700.46,747.041 2703.62,745.541 2707,744.5C 2710.65,746.653 2713.48,749.653 2715.5,753.5C 2711.52,758.164 2706.52,761.331 2700.5,763C 2692.56,764.53 2684.56,764.863 2676.5,764C 2662.47,760.121 2654.3,750.955 2652,736.5C 2648.11,715.265 2655.94,700.599 2675.5,692.5 Z M 2679.5,705.5 C 2692.01,703.032 2698.68,708.032 2699.5,720.5C 2689.5,720.5 2679.5,720.5 2669.5,720.5C 2670.52,713.839 2673.85,708.839 2679.5,705.5 Z"/></g>
<g><path style="opacity:0.932" fill="#04A89B" d="M 2763.5,692.5 C 2774.28,690.144 2782.12,693.81 2787,703.5C 2794.75,693.471 2804.92,689.971 2817.5,693C 2825.74,695.573 2830.91,701.073 2833,709.5C 2833.5,727.83 2833.67,746.164 2833.5,764.5C 2827.83,764.5 2822.17,764.5 2816.5,764.5C 2816.67,748.497 2816.5,732.497 2816,716.5C 2813.6,706.884 2807.77,704.051 2798.5,708C 2796.38,709.731 2794.88,711.898 2794,714.5C 2793.5,731.163 2793.33,747.83 2793.5,764.5C 2787.5,764.5 2781.5,764.5 2775.5,764.5C 2775.67,747.497 2775.5,730.497 2775,713.5C 2772.27,706.947 2767.44,704.78 2760.5,707C 2757.44,708.061 2754.94,709.894 2753,712.5C 2752.5,729.83 2752.33,747.163 2752.5,764.5C 2746.5,764.5 2740.5,764.5 2734.5,764.5C 2734.5,740.833 2734.5,717.167 2734.5,693.5C 2739.51,693.334 2744.51,693.501 2749.5,694C 2750.11,695.947 2750.94,697.781 2752,699.5C 2755.51,696.5 2759.35,694.167 2763.5,692.5 Z"/></g>
<g><path style="opacity:0.929" fill="#04A89B" d="M 2876.5,692.5 C 2883.59,692.116 2890.59,692.616 2897.5,694C 2905.8,697.42 2910.63,703.586 2912,712.5C 2912.5,729.497 2912.67,746.497 2912.5,763.5C 2908.49,763.666 2904.49,763.499 2900.5,763C 2898.4,760.958 2897.23,758.458 2897,755.5C 2888.49,763.839 2878.32,766.672 2866.5,764C 2856.01,760.199 2851.84,752.699 2854,741.5C 2855.74,734.763 2859.9,730.263 2866.5,728C 2875.79,724.146 2885.46,722.646 2895.5,723.5C 2896.35,716.869 2894.35,711.369 2889.5,707C 2887.64,706.578 2885.81,706.078 2884,705.5C 2877.58,707.127 2871.41,709.46 2865.5,712.5C 2860.54,710.87 2857.7,707.537 2857,702.5C 2862.68,697.41 2869.18,694.077 2876.5,692.5 Z M 2883.5,734.5 C 2887.5,734.5 2891.5,734.5 2895.5,734.5C 2896.53,745.647 2891.36,751.313 2880,751.5C 2874.73,752.067 2871.56,749.733 2870.5,744.5C 2870.94,741.786 2872.27,739.62 2874.5,738C 2877.57,736.704 2880.57,735.538 2883.5,734.5 Z"/></g>
<g><path style="opacity:0.925" fill="#04A89B" d="M 3057.5,692.5 C 3065.24,692.144 3072.9,692.644 3080.5,694C 3085.22,695.895 3089.22,698.728 3092.5,702.5C 3090.73,706.437 3087.9,709.103 3084,710.5C 3060.45,700.687 3049.78,708.687 3052,734.5C 3054.04,747.761 3061.54,752.927 3074.5,750C 3077.73,747.927 3081.06,746.094 3084.5,744.5C 3088.28,746.444 3091.28,749.278 3093.5,753C 3082.31,764.381 3068.97,767.715 3053.5,763C 3044.15,758.644 3037.98,751.477 3035,741.5C 3030.35,724.605 3034.18,710.105 3046.5,698C 3050.19,696.058 3053.86,694.224 3057.5,692.5 Z"/></g>
<g><path style="opacity:0.917" fill="#04A89B" d="M 3123.5,692.5 C 3136.14,690.116 3147.14,693.116 3156.5,701.5C 3154.87,704.596 3152.87,707.43 3150.5,710C 3144.77,708.543 3138.94,707.043 3133,705.5C 3128.02,705.733 3124.52,708.066 3122.5,712.5C 3123.25,714.753 3124.59,716.587 3126.5,718C 3134.32,720.608 3141.99,723.608 3149.5,727C 3156.14,732.711 3158.3,739.877 3156,748.5C 3153.32,757.177 3147.49,762.343 3138.5,764C 3125.47,766.72 3113.8,764.053 3103.5,756C 3105.11,752.728 3107.11,749.728 3109.5,747C 3111.5,746.333 3113.5,746.333 3115.5,747C 3122.93,752.238 3130.6,752.738 3138.5,748.5C 3141.47,743.922 3140.47,740.422 3135.5,738C 3127.52,735.784 3119.85,732.784 3112.5,729C 3104.98,721.042 3103.81,712.208 3109,702.5C 3112.63,697.358 3117.47,694.024 3123.5,692.5 Z"/></g>
<g><path style="opacity:0.976" fill="#04A89B" d="M 243.5,693.5 C 249.167,693.5 254.833,693.5 260.5,693.5C 260.5,717.167 260.5,740.833 260.5,764.5C 254.833,764.5 249.167,764.5 243.5,764.5C 243.5,740.833 243.5,717.167 243.5,693.5 Z"/></g>
<g><path style="opacity:0.929" fill="#04A89B" d="M 448.5,786.5 C 442.833,786.5 437.167,786.5 431.5,786.5C 435.819,777.193 440.153,767.86 444.5,758.5C 435.167,737.167 425.833,715.833 416.5,694.5C 423.056,693.19 429.556,693.19 436,694.5C 442.195,708.752 448.195,723.085 454,737.5C 459.26,722.71 465.093,708.21 471.5,694C 477.196,693.17 482.863,693.337 488.5,694.5C 475.685,725.457 462.352,756.123 448.5,786.5 Z"/></g>
<g><path style="opacity:0.933" fill="#04A89B" d="M 989.5,693.5 C 995.5,693.5 1001.5,693.5 1007.5,693.5C 1007.33,710.17 1007.5,726.837 1008,743.5C 1011.55,750.435 1017.05,752.602 1024.5,750C 1027.6,748.561 1030.44,746.727 1033,744.5C 1033.5,727.503 1033.67,710.503 1033.5,693.5C 1039.5,693.5 1045.5,693.5 1051.5,693.5C 1051.5,717.167 1051.5,740.833 1051.5,764.5C 1046.73,764.809 1042.07,764.309 1037.5,763C 1036.11,760.955 1034.95,758.788 1034,756.5C 1024.68,764.78 1014.18,766.947 1002.5,763C 995.24,758.995 991.073,752.829 990,744.5C 989.5,727.503 989.333,710.503 989.5,693.5 Z"/></g>
<g><path style="opacity:0.976" fill="#04A89B" d="M 1265.5,693.5 C 1271.17,693.5 1276.83,693.5 1282.5,693.5C 1282.5,717.167 1282.5,740.833 1282.5,764.5C 1276.83,764.5 1271.17,764.5 1265.5,764.5C 1265.5,740.833 1265.5,717.167 1265.5,693.5 Z"/></g> -->
<!-- <g><path style="opacity:0.976" fill="#04A89B" d="M 2059.5,693.5 C 2065.17,693.5 2070.83,693.5 2076.5,693.5C 2076.5,717.167 2076.5,740.833 2076.5,764.5C 2070.83,764.5 2065.17,764.5 2059.5,764.5C 2059.5,740.833 2059.5,717.167 2059.5,693.5 Z"/></g> -->
<!-- <g><path style="opacity:0.976" fill="#04A89B" d="M 2996.5,693.5 C 3002.17,693.5 3007.83,693.5 3013.5,693.5C 3013.5,717.167 3013.5,740.833 3013.5,764.5C 3007.83,764.5 3002.17,764.5 2996.5,764.5C 2996.5,740.833 2996.5,717.167 2996.5,693.5 Z"/></g> -->
</svg>
